{"accessors":[{"bufferView":0,"byteOffset":0,"componentType":5126,"count":360412,"max":[0.76,-0.005,0.839],"min":[0.376,-0.025,0.089],"type":"VEC3"},{"bufferView":1,"byteOffset":0,"componentType":5125,"count":2144544,"type":"SCALAR"}],"asset":{"generator":"Open CASCADE Technology 7.6 [dev.opencascade.org]","version":"2.0","extras":{"Comments":"STLB ATF 12.20.1.177 COLOR=õõöÿ                                                 `è"}},"bufferViews":[{"buffer":0,"byteLength":4324944,"byteOffset":0,"byteStride":12,"target":34962},{"buffer":0,"byteLength":8578176,"byteOffset":4324944,"target":34963}],"buffers":[{"byteLength":12903120,"uri":"armature.bin"}],"meshes":[{"name":"armature.stl","primitives":[{"attributes":{"POSITION":0},"indices":1,"mode":4}]}],"nodes":[{"mesh":0,"name":"armature.stl"}],"scene":0,"scenes":[{"nodes":[0]}]}