{"accessors":[{"bufferView":0,"byteOffset":0,"componentType":5126,"count":700,"max":[0.18907350158691409,0.014987500190734863,0.7123015747070313],"min":[0.17107350158691407,-0.005012499809265137,0.6943015747070312],"type":"VEC3"},{"bufferView":1,"byteOffset":0,"componentType":5123,"count":2076,"type":"SCALAR"}],"asset":{"generator":"Open CASCADE Technology 7.6 [dev.opencascade.org]","version":"2.0","extras":{"Comments":"STLB ATF 12.20.1.177 COLOR=   ÿ                                                 ´\u0002"}},"bufferViews":[{"buffer":0,"byteLength":8400,"byteOffset":0,"byteStride":12,"target":34962},{"buffer":0,"byteLength":4152,"byteOffset":8400,"target":34963}],"buffers":[{"byteLength":12552,"uri":"equerreFixe.bin"}],"materials":[{"name":"mat_0","pbrMetallicRoughness":{"baseColorFactor":[0.05126945674419403,0.05126945674419403,0.05126945674419403,1.0],"roughnessFactor":0.2121320366859436},"doubleSided":true}],"meshes":[{"name":"equerreFixe_.stl","primitives":[{"attributes":{"POSITION":0},"indices":1,"material":0,"mode":4}]}],"nodes":[{"mesh":0,"name":"equerreFixe_.stl"}],"scene":0,"scenes":[{"nodes":[0]}]}