{"accessors":[{"bufferView":0,"byteOffset":0,"componentType":5126,"count":493,"max":[0.025899999618530277,0.0245,0.0017999999523162843],"min":[-4.0204742313143528e-13,-2.311115933264683e-35,-0.007300000190734864],"type":"VEC3"},{"bufferView":1,"byteOffset":0,"componentType":5123,"count":1392,"type":"SCALAR"}],"asset":{"generator":"Open CASCADE Technology 7.6 [dev.opencascade.org]","version":"2.0","extras":{"Comments":"STLB ATF 12.20.1.177 COLOR=   ÿ                                                 Ð\u0001"}},"bufferViews":[{"buffer":0,"byteLength":5916,"byteOffset":0,"byteStride":12,"target":34962},{"buffer":0,"byteLength":2784,"byteOffset":5916,"target":34963}],"buffers":[{"byteLength":8700,"uri":"equerreProfiles.bin"}],"materials":[{"name":"mat_0","pbrMetallicRoughness":{"baseColorFactor":[0.05126945674419403,0.05126945674419403,0.05126945674419403,1.0],"roughnessFactor":0.2121320366859436},"doubleSided":true}],"meshes":[{"name":"equerreProfiles.stl","primitives":[{"attributes":{"POSITION":0},"indices":1,"material":0,"mode":4}]}],"nodes":[{"mesh":0,"name":"equerreProfiles.stl"}],"scene":0,"scenes":[{"nodes":[0]}]}