{"accessors":[{"bufferView":0,"byteOffset":0,"componentType":5126,"count":14190,"max":[0.008,0.0014867168664932252,0.36866326904296878],"min":[-0.03,-0.004512500286102295,-0.37148672485351566],"type":"VEC3"},{"bufferView":1,"byteOffset":0,"componentType":5123,"count":42084,"type":"SCALAR"}],"asset":{"generator":"Open CASCADE Technology 7.6 [dev.opencascade.org]","version":"2.0","extras":{"Comments":"STLB ATF 12.20.1.177 COLOR=õõöÿ                                                 Ì6"}},"bufferViews":[{"buffer":0,"byteLength":170280,"byteOffset":0,"byteStride":12,"target":34962},{"buffer":0,"byteLength":84168,"byteOffset":170280,"target":34963}],"buffers":[{"byteLength":254448,"uri":"hinge.bin"}],"meshes":[{"name":"hinge.stl","primitives":[{"attributes":{"POSITION":0},"indices":1,"mode":4}]}],"nodes":[{"mesh":0,"name":"hinge.stl"}],"scene":0,"scenes":[{"nodes":[0]}]}