{"accessors":[{"bufferView":0,"byteOffset":0,"componentType":5126,"count":72,"max":[0.15,0.4,0.2],"min":[-0.15,-0.4,0.0],"type":"VEC3"},{"bufferView":0,"byteOffset":864,"componentType":5126,"count":38,"max":[0.4365191345214844,0.3518363952636719,0.0993308334350586],"min":[0.20651913452148439,-0.3481636047363281,0.024330833435058594],"type":"VEC3"},{"bufferView":0,"byteOffset":1320,"componentType":5126,"count":22,"max":[0.12436169433593751,0.11070153045654298,0.5557681274414063],"min":[-0.06563830566406251,-0.3744651184082031,0.20576809692382815],"type":"VEC3"},{"bufferView":0,"byteOffset":1584,"componentType":5126,"count":24,"max":[-0.17382147216796876,0.3758470153808594,0.16968272399902346],"min":[-0.44882147216796877,-0.37415298461914067,0.12468271636962891],"type":"VEC3"},{"bufferView":0,"byteOffset":1872,"componentType":5126,"count":48,"max":[0.4615191345214844,0.3768363952636719,0.0993308334350586],"min":[0.1865191345214844,-0.37316360473632817,0.01933083724975586],"type":"VEC3"},{"bufferView":1,"byteOffset":0,"componentType":5126,"count":72,"type":"VEC3"},{"bufferView":1,"byteOffset":864,"componentType":5126,"count":38,"type":"VEC3"},{"bufferView":1,"byteOffset":1320,"componentType":5126,"count":24,"type":"VEC3"},{"bufferView":1,"byteOffset":1608,"componentType":5126,"count":48,"type":"VEC3"},{"bufferView":2,"byteOffset":0,"componentType":5123,"count":132,"type":"SCALAR"},{"bufferView":2,"byteOffset":264,"componentType":5123,"count":66,"type":"SCALAR"},{"bufferView":2,"byteOffset":396,"componentType":5123,"count":120,"type":"SCALAR"},{"bufferView":2,"byteOffset":636,"componentType":5123,"count":36,"type":"SCALAR"},{"bufferView":2,"byteOffset":708,"componentType":5123,"count":84,"type":"SCALAR"}],"asset":{"generator":"Open CASCADE Technology 7.6 [dev.opencascade.org]","version":"2.0","extras":{"Comments":"WaveFront *.obj file (generated by Autodesk ATF)"}},"bufferViews":[{"buffer":0,"byteLength":2448,"byteOffset":0,"byteStride":12,"target":34962},{"buffer":0,"byteLength":2184,"byteOffset":2448,"byteStride":12,"target":34962},{"buffer":0,"byteLength":876,"byteOffset":4632,"target":34963}],"buffers":[{"byteLength":5508,"uri":"mallette_2.bin"}],"materials":[{"name":"mat_0","pbrMetallicRoughness":{"baseColorFactor":[0.6514056324958801,0.11953842639923096,0.009134058840572834,1.0],"roughnessFactor":0.2121320366859436},"doubleSided":true},{"name":"mat_1","pbrMetallicRoughness":{"baseColorFactor":[0.0009105809731408954,0.14126329123973847,0.366252601146698,1.0],"roughnessFactor":0.2121320366859436},"doubleSided":true}],"meshes":[{"name":"Body1","primitives":[{"attributes":{"NORMAL":5,"POSITION":0},"indices":9,"material":0,"mode":4}]},{"name":"Body1:1","primitives":[{"attributes":{"NORMAL":6,"POSITION":1},"indices":10,"material":1,"mode":4}]},{"name":"Bras repos - Part 1","primitives":[{"attributes":{"POSITION":2},"indices":11,"material":1,"mode":4}]},{"name":"Body1:2","primitives":[{"attributes":{"NORMAL":7,"POSITION":3},"indices":12,"material":0,"mode":4}]},{"name":"Body1:3","primitives":[{"attributes":{"NORMAL":8,"POSITION":4},"indices":13,"material":0,"mode":4}]}],"nodes":[{"children":[1,2,3,4,5],"name":"mallette_2.obj"},{"mesh":0,"name":"Body1"},{"mesh":1,"name":"Body1:1"},{"mesh":2,"name":"Bras repos - Part 1"},{"mesh":3,"name":"Body1:2"},{"mesh":4,"name":"Body1:3"}],"scene":0,"scenes":[{"nodes":[0]}]}