{"accessors":[{"bufferView":0,"byteOffset":0,"componentType":5126,"count":36,"max":[200.0,375.0,5.0],"min":[-200.0,-375.0,0.0],"type":"VEC3"},{"bufferView":0,"byteOffset":432,"componentType":5126,"count":36,"max":[-200.0,375.0,370.0],"min":[-205.0,-375.0,0.0],"type":"VEC3"},{"bufferView":0,"byteOffset":864,"componentType":5126,"count":171,"max":[685.0,410.0,370.0],"min":[285.0,-350.0,0.0],"type":"VEC3"},{"bufferView":0,"byteOffset":2916,"componentType":5126,"count":64,"max":[175.0,375.0,80.0],"min":[-55.0,-325.0,4.9999970703125],"type":"VEC3"},{"bufferView":0,"byteOffset":3684,"componentType":5126,"count":99,"max":[22.738521484375,358.02440625,355.8483125],"min":[-167.26146875,-127.1422421875,5.84827880859375],"type":"VEC3"},{"bufferView":0,"byteOffset":4872,"componentType":5126,"count":82,"max":[1040.0,250.0,50.0],"min":[875.0,-410.0,0.0],"type":"VEC3"},{"bufferView":1,"byteOffset":0,"componentType":5126,"count":36,"type":"VEC3"},{"bufferView":1,"byteOffset":432,"componentType":5126,"count":36,"type":"VEC3"},{"bufferView":1,"byteOffset":864,"componentType":5126,"count":171,"type":"VEC3"},{"bufferView":1,"byteOffset":2916,"componentType":5126,"count":64,"type":"VEC3"},{"bufferView":1,"byteOffset":3684,"componentType":5126,"count":82,"type":"VEC3"},{"bufferView":2,"byteOffset":0,"componentType":5123,"count":36,"type":"SCALAR"},{"bufferView":2,"byteOffset":72,"componentType":5123,"count":36,"type":"SCALAR"},{"bufferView":2,"byteOffset":144,"componentType":5123,"count":180,"type":"SCALAR"},{"bufferView":2,"byteOffset":504,"componentType":5123,"count":66,"type":"SCALAR"},{"bufferView":2,"byteOffset":636,"componentType":5123,"count":120,"type":"SCALAR"},{"bufferView":2,"byteOffset":876,"componentType":5123,"count":84,"type":"SCALAR"}],"asset":{"generator":"Open CASCADE Technology 7.6 [dev.opencascade.org]","version":"2.0","extras":{"Originating system":"Aspose.3D 24.1.0"}},"bufferViews":[{"buffer":0,"byteLength":5856,"byteOffset":0,"byteStride":12,"target":34962},{"buffer":0,"byteLength":4668,"byteOffset":5856,"byteStride":12,"target":34962},{"buffer":0,"byteLength":1044,"byteOffset":10524,"target":34963}],"buffers":[{"byteLength":11568,"uri":"mallette_3.bin"}],"materials":[{"name":"mat_0","pbrMetallicRoughness":{"baseColorFactor":[0.6514056324958801,0.11953842639923096,0.009134058840572834,1.0],"roughnessFactor":0.2121320366859436},"doubleSided":true},{"name":"mat_1","pbrMetallicRoughness":{"baseColorFactor":[0.0,0.0,1.0,1.0],"roughnessFactor":0.2121320366859436},"doubleSided":true},{"name":"mat_2","pbrMetallicRoughness":{"baseColorFactor":[0.0,1.0,0.0,1.0],"roughnessFactor":0.2121320366859436},"doubleSided":true}],"meshes":[{"name":"Body1","primitives":[{"attributes":{"NORMAL":6,"POSITION":0},"indices":11,"material":0,"mode":4}]},{"name":"Body1:1","primitives":[{"attributes":{"NORMAL":7,"POSITION":1},"indices":12,"material":0,"mode":4}]},{"name":"Body1:2","primitives":[{"attributes":{"NORMAL":8,"POSITION":2},"indices":13,"material":0,"mode":4}]},{"name":"Body1:3","primitives":[{"attributes":{"NORMAL":9,"POSITION":3},"indices":14,"material":1,"mode":4}]},{"name":"Bras repos - Part 1","primitives":[{"attributes":{"POSITION":4},"indices":15,"material":2,"mode":4}]},{"name":"Body1:4","primitives":[{"attributes":{"NORMAL":10,"POSITION":5},"indices":16,"material":0,"mode":4}]}],"nodes":[{"mesh":0,"name":"Body1"},{"mesh":1,"name":"Body1:1"},{"mesh":2,"name":"Body1:2"},{"mesh":3,"name":"Body1:3"},{"mesh":4,"name":"Bras repos - Part 1"},{"mesh":5,"name":"Body1:4"}],"scene":0,"scenes":[{"nodes":[0,1,2,3,4,5]}]}